HIERARCHY
ROOT Hips
{
  OFFSET 280.216 92.1061 837.818
  CHANNELS 6 Xposition Yposition Zposition Zrotation Xrotation Yrotation
  JOINT Spine
  {
    OFFSET -2.75631e-05 8 -1.07039e-05
    CHANNELS 6 Xposition Yposition Zposition Zrotation Xrotation Yrotation
    JOINT Spine1
    {
      OFFSET 4.7115e-05 8 1.02656e-05
      CHANNELS 6 Xposition Yposition Zposition Zrotation Xrotation Yrotation
      JOINT Spine2
      {
        OFFSET -1.35898e-05 8 0
        CHANNELS 6 Xposition Yposition Zposition Zrotation Xrotation Yrotation
        JOINT Spine3
        {
          OFFSET 0 8 0
          CHANNELS 6 Xposition Yposition Zposition Zrotation Xrotation Yrotation
          JOINT Neck
          {
            OFFSET -3.6207e-05 17.0003 -2.16366e-05
            CHANNELS 6 Xposition Yposition Zposition Zrotation Xrotation Yrotation
            JOINT Head
            {
              OFFSET -2.46081e-05 10.8 1.35406e-05
              CHANNELS 6 Xposition Yposition Zposition Zrotation Xrotation Yrotation
              End Site
              {
                OFFSET 0 20.25 0
              }
            }
          }
          JOINT LeftShoulder
          {
            OFFSET 4.99999 17 -1.04848e-05
            CHANNELS 6 Xposition Yposition Zposition Zrotation Xrotation Yrotation
            JOINT LeftShoulder2
            {
              OFFSET 6.45 0 0
              CHANNELS 6 Xposition Yposition Zposition Zrotation Xrotation Yrotation
              JOINT LeftArm
              {
                OFFSET 6.45001 1.04291e-05 1.18637e-05
                CHANNELS 6 Xposition Yposition Zposition Zrotation Xrotation Yrotation
                JOINT LeftForeArm
                {
                  OFFSET 2.65537e-05 -32.4 -1.99998
                  CHANNELS 6 Xposition Yposition Zposition Zrotation Xrotation Yrotation
                  JOINT LeftHand
                  {
                    OFFSET -1.86975e-05 -25.65 1.99998
                    CHANNELS 6 Xposition Yposition Zposition Zrotation Xrotation Yrotation
                    JOINT LeftHandThumb1
                    {
                      OFFSET -0.499996 -1.50001 2.65
                      CHANNELS 6 Xposition Yposition Zposition Zrotation Xrotation Yrotation
                      JOINT LeftHandThumb2
                      {
                        OFFSET 1.11706e-05 -3.79998 3.70002
                        CHANNELS 6 Xposition Yposition Zposition Zrotation Xrotation Yrotation
                        JOINT LeftHandThumb3
                        {
                          OFFSET 0 -3 2.7
                          CHANNELS 6 Xposition Yposition Zposition Zrotation Xrotation Yrotation
                          End Site
                          {
                            OFFSET 0 -2.30002 1.79999
                          }
                        }
                      }
                    }
                    JOINT LeftHandIndex
                    {
                      OFFSET 0 -1.9 1.6
                      CHANNELS 6 Xposition Yposition Zposition Zrotation Xrotation Yrotation
                      JOINT LeftHandIndex1
                      {
                        OFFSET 0 -8.3 1.90002
                        CHANNELS 6 Xposition Yposition Zposition Zrotation Xrotation Yrotation
                        JOINT LeftHandIndex2
                        {
                          OFFSET 4.34004e-05 -4.5 0
                          CHANNELS 6 Xposition Yposition Zposition Zrotation Xrotation Yrotation
                          JOINT LeftHandIndex3
                          {
                            OFFSET 0 -3.4 0
                            CHANNELS 6 Xposition Yposition Zposition Zrotation Xrotation Yrotation
                            End Site
                            {
                              OFFSET 0 -2.60002 1.12439e-05
                            }
                          }
                        }
                      }
                    }
                    JOINT LeftHandMiddle
                    {
                      OFFSET -0.249989 -2.20001 0.400002
                      CHANNELS 6 Xposition Yposition Zposition Zrotation Xrotation Yrotation
                      JOINT LeftHandMiddle1
                      {
                        OFFSET 0 -8.3 1.00001
                        CHANNELS 6 Xposition Yposition Zposition Zrotation Xrotation Yrotation
                        JOINT LeftHandMiddle2
                        {
                          OFFSET -1.08788e-05 -4.65 0
                          CHANNELS 6 Xposition Yposition Zposition Zrotation Xrotation Yrotation
                          JOINT LeftHandMiddle3
                          {
                            OFFSET 1.46878e-05 -3.29999 1.92337e-05
                            CHANNELS 6 Xposition Yposition Zposition Zrotation Xrotation Yrotation
                            End Site
                            {
                              OFFSET -3.23378e-05 -2.7 1.24917e-05
                            }
                          }
                        }
                      }
                    }
                    JOINT LeftHandRing
                    {
                      OFFSET -0.49999 -2.15002 -0.799988
                      CHANNELS 6 Xposition Yposition Zposition Zrotation Xrotation Yrotation
                      JOINT LeftHandRing1
                      {
                        OFFSET 0 -7.74999 -0.199987
                        CHANNELS 6 Xposition Yposition Zposition Zrotation Xrotation Yrotation
                        JOINT LeftHandRing2
                        {
                          OFFSET 0 -3.8 1.34945e-05
                          CHANNELS 6 Xposition Yposition Zposition Zrotation Xrotation Yrotation
                          JOINT LeftHandRing3
                          {
                            OFFSET 0 -3.39998 -1.40917e-05
                            CHANNELS 6 Xposition Yposition Zposition Zrotation Xrotation Yrotation
                            End Site
                            {
                              OFFSET 0 -2.60003 -1.68076e-05
                            }
                          }
                        }
                      }
                    }
                    JOINT LeftHandPinky
                    {
                      OFFSET -0.749983 -1.75002 -1.84999
                      CHANNELS 6 Xposition Yposition Zposition Zrotation Xrotation Yrotation
                      JOINT LeftHandPinky1
                      {
                        OFFSET -2.04163e-05 -7.14999 -1.00001
                        CHANNELS 6 Xposition Yposition Zposition Zrotation Xrotation Yrotation
                        JOINT LeftHandPinky2
                        {
                          OFFSET 2.14305e-05 -3.00001 2.73132e-05
                          CHANNELS 6 Xposition Yposition Zposition Zrotation Xrotation Yrotation
                          JOINT LeftHandPinky3
                          {
                            OFFSET 0 -2.35001 -1.37626e-05
                            CHANNELS 6 Xposition Yposition Zposition Zrotation Xrotation Yrotation
                            End Site
                            {
                              OFFSET 0 -2.09998 -1.50635e-05
                            }
                          }
                        }
                      }
                    }
                  }
                }
              }
            }
          }
          JOINT RightShoulder
          {
            OFFSET -4.99999 17 0
            CHANNELS 6 Xposition Yposition Zposition Zrotation Xrotation Yrotation
            JOINT RightShoulder2
            {
              OFFSET -6.45 0 0
              CHANNELS 6 Xposition Yposition Zposition Zrotation Xrotation Yrotation
              JOINT RightArm
              {
                OFFSET -6.45002 0 -1.60603e-05
                CHANNELS 6 Xposition Yposition Zposition Zrotation Xrotation Yrotation
                JOINT RightForeArm
                {
                  OFFSET -1.8359e-05 -32.4 -2.00002
                  CHANNELS 6 Xposition Yposition Zposition Zrotation Xrotation Yrotation
                  JOINT RightHand
                  {
                    OFFSET 1.41759e-05 -25.65 2
                    CHANNELS 6 Xposition Yposition Zposition Zrotation Xrotation Yrotation
                    JOINT RightHandThumb1
                    {
                      OFFSET 0.499993 -1.50001 2.65002
                      CHANNELS 6 Xposition Yposition Zposition Zrotation Xrotation Yrotation
                      JOINT RightHandThumb2
                      {
                        OFFSET 0 -3.79999 3.69999
                        CHANNELS 6 Xposition Yposition Zposition Zrotation Xrotation Yrotation
                        JOINT RightHandThumb3
                        {
                          OFFSET 0 -3.00001 2.70002
                          CHANNELS 6 Xposition Yposition Zposition Zrotation Xrotation Yrotation
                          End Site
                          {
                            OFFSET 0 -2.30003 1.79997
                          }
                        }
                      }
                    }
                    JOINT RightHandIndex
                    {
                      OFFSET -1.37741e-05 -1.9 1.60003
                      CHANNELS 6 Xposition Yposition Zposition Zrotation Xrotation Yrotation
                      JOINT RightHandIndex1
                      {
                        OFFSET 2.70597e-05 -8.30003 1.89993
                        CHANNELS 6 Xposition Yposition Zposition Zrotation Xrotation Yrotation
                        JOINT RightHandIndex2
                        {
                          OFFSET -2.06949e-05 -4.49999 1.14888e-05
                          CHANNELS 6 Xposition Yposition Zposition Zrotation Xrotation Yrotation
                          JOINT RightHandIndex3
                          {
                            OFFSET 0 -3.4 1.32167e-05
                            CHANNELS 6 Xposition Yposition Zposition Zrotation Xrotation Yrotation
                            End Site
                            {
                              OFFSET 1.46036e-05 -2.6 -2.53611e-05
                            }
                          }
                        }
                      }
                    }
                    JOINT RightHandMiddle
                    {
                      OFFSET 0.249999 -2.20002 0.400007
                      CHANNELS 6 Xposition Yposition Zposition Zrotation Xrotation Yrotation
                      JOINT RightHandMiddle1
                      {
                        OFFSET 0 -8.3 0.999975
                        CHANNELS 6 Xposition Yposition Zposition Zrotation Xrotation Yrotation
                        JOINT RightHandMiddle2
                        {
                          OFFSET 0 -4.64999 1.29999e-05
                          CHANNELS 6 Xposition Yposition Zposition Zrotation Xrotation Yrotation
                          JOINT RightHandMiddle3
                          {
                            OFFSET -2.64261e-05 -3.3 2.57139e-05
                            CHANNELS 6 Xposition Yposition Zposition Zrotation Xrotation Yrotation
                            End Site
                            {
                              OFFSET 0 -2.7 0
                            }
                          }
                        }
                      }
                    }
                    JOINT RightHandRing
                    {
                      OFFSET 0.499997 -2.15002 -0.799993
                      CHANNELS 6 Xposition Yposition Zposition Zrotation Xrotation Yrotation
                      JOINT RightHandRing1
                      {
                        OFFSET 1.55764e-05 -7.75002 -0.200003
                        CHANNELS 6 Xposition Yposition Zposition Zrotation Xrotation Yrotation
                        JOINT RightHandRing2
                        {
                          OFFSET 0 -3.8 -1.97799e-05
                          CHANNELS 6 Xposition Yposition Zposition Zrotation Xrotation Yrotation
                          JOINT RightHandRing3
                          {
                            OFFSET 0 -3.4 0
                            CHANNELS 6 Xposition Yposition Zposition Zrotation Xrotation Yrotation
                            End Site
                            {
                              OFFSET -1.03385e-05 -2.59998 4.60239e-05
                            }
                          }
                        }
                      }
                    }
                    JOINT RightHandPinky
                    {
                      OFFSET 0.750001 -1.75003 -1.85
                      CHANNELS 6 Xposition Yposition Zposition Zrotation Xrotation Yrotation
                      JOINT RightHandPinky1
                      {
                        OFFSET 0 -7.14998 -0.999965
                        CHANNELS 6 Xposition Yposition Zposition Zrotation Xrotation Yrotation
                        JOINT RightHandPinky2
                        {
                          OFFSET 0 -3 -4.46244e-05
                          CHANNELS 6 Xposition Yposition Zposition Zrotation Xrotation Yrotation
                          JOINT RightHandPinky3
                          {
                            OFFSET -1.94032e-05 -2.35 2.20048e-05
                            CHANNELS 6 Xposition Yposition Zposition Zrotation Xrotation Yrotation
                            End Site
                            {
                              OFFSET 0 -2.09996 -5.12684e-05
                            }
                          }
                        }
                      }
                    }
                  }
                }
              }
            }
          }
        }
      }
    }
  }
  JOINT LeftUpLeg
  {
    OFFSET 8 0 0
    CHANNELS 6 Xposition Yposition Zposition Zrotation Xrotation Yrotation
    JOINT LeftLeg
    {
      OFFSET 1.27769e-05 -45 -0.999981
      CHANNELS 6 Xposition Yposition Zposition Zrotation Xrotation Yrotation
      JOINT LeftFoot
      {
        OFFSET -2.39365e-05 -41 -2.00005
        CHANNELS 6 Xposition Yposition Zposition Zrotation Xrotation Yrotation
        JOINT LeftToeBase
        {
          OFFSET 0 -7.50001 12.5
          CHANNELS 6 Xposition Yposition Zposition Zrotation Xrotation Yrotation
          JOINT LeftFootToe
          {
            OFFSET 0 0 4
            CHANNELS 6 Xposition Yposition Zposition Zrotation Xrotation Yrotation
            End Site
            {
              OFFSET 0 0 0
            }
          }
        }
      }
    }
  }
  JOINT RightUpLeg
  {
    OFFSET -8 0 0
    CHANNELS 6 Xposition Yposition Zposition Zrotation Xrotation Yrotation
    JOINT RightLeg
    {
      OFFSET 0 -45 -0.999991
      CHANNELS 6 Xposition Yposition Zposition Zrotation Xrotation Yrotation
      JOINT RightFoot
      {
        OFFSET -4.02877e-05 -41 -2.00002
        CHANNELS 6 Xposition Yposition Zposition Zrotation Xrotation Yrotation
        JOINT RightToeBase
        {
          OFFSET 0 -7.5 12.5
          CHANNELS 6 Xposition Yposition Zposition Zrotation Xrotation Yrotation
          JOINT RightFootToe
          {
            OFFSET 0 0 4
            CHANNELS 6 Xposition Yposition Zposition Zrotation Xrotation Yrotation
            End Site
            {
              OFFSET 0 0 0
            }
          }
        }
      }
    }
  }
}
MOTION
Frames:	3
Frame Time:	0.0111111
292.731 92.159 833.961 -0.959365 -2.94072 71.6881 0 8 0 5.04641 -0.156183 -8.23053 0 8 2.27374e-13 -0.936244 -0.0627341 -3.35999 0 8 0 -0.464496 -0.0410781 -1.68125 0 8 0 -0.464267 -0.041062 -1.68049 1.13687e-13 17 -1.13687e-13 2.7641 5.74526 5.04366 1.13687e-13 10.8 0 0.259947 9.5676 11.934 5 17 -1.13687e-13 -2.04804 -3.59735 4.45849 6.45 0 0 -0.996964 -1.36026 1.19628 6.45 -4.26326e-14 0 3.61699 -23.8715 5.03493 0 -32.4 -2 -0.237411 -50.9179 46.5873 0 -25.65 2 -16.329 -0.538631 7.80442 -0.5 -1.5 2.65 4.39947 -16.721 -4.51325 0 -3.8 3.7 -0.0559626 36.252 -0.0512174 1.13687e-13 -3 2.7 -0.315047 52.35 0.255928 -5.68434e-14 -1.9 1.6 -8.71627e-07 1.05263e-06 -2.77942e-06 -5.68434e-14 -8.3 1.9 -8.60473 -22.2779 -1.37465 5.68434e-14 -4.5 0 -0.00029103 8.31147e-05 -0.00105168 0 -3.4 0 2.99668e-06 0.000129409 -0.000948479 -0.25 -2.2 0.4 -8.71627e-07 1.05263e-06 -2.77942e-06 0 -8.3 1 -9.16928 -13.1325 -0.682879 5.68434e-14 -4.65 0 -0.00150267 6.16909e-06 2.83775e-06 0 -3.3 0 -1.79143e-07 5.48088e-06 -3.55899e-06 -0.5 -2.15 -0.8 -8.71627e-07 1.05263e-06 -2.77942e-06 0 -7.75 -0.2 -13.9331 2.84369 0.892535 2.84217e-14 -3.8 -1.13687e-13 -0.000355184 2.07126e-06 3.93576e-06 0 -3.4 1.13687e-13 1.28679e-05 2.96202e-06 -0.000127307 -0.75 -1.75 -1.85 -8.71627e-07 1.05263e-06 -2.77942e-06 0 -7.15 -1 -16.0375 10.5643 2.17883 -2.84217e-14 -3 -5.68434e-14 -0.000425888 -1.09174e-05 -5.45924e-06 -7.10543e-14 -2.35 -5.68434e-14 5.53227e-07 -3.94206e-07 2.17106e-06 -5 17 0 1.43062 0.32277 4.86028 -6.45 -2.84217e-14 0 -1.63775 0.750623 0.10454 -6.45 2.84217e-14 0 -4.42207 -29.7975 33.1604 0 -32.4 -2 47.7279 -59.7845 33.3679 1.13687e-13 -25.65 2 -45.1485 6.01698 15.6768 0.5 -1.5 2.65 9.08923 -10.7875 5.43877 0 -3.8 3.7 0.487277 26.7442 -0.233402 0 -3 2.7 0.137813 11.459 0.0400686 0 -1.9 1.6 3.18055e-15 4.77083e-15 -3.18055e-15 0 -8.3 1.9 19.4216 14.7541 -2.70034 0 -4.5 2.84217e-14 15.1854 0.21801 0.0785782 0 -3.4 5.68434e-14 12.5931 0.16286 0.0209728 0.25 -2.2 0.4 3.18055e-15 4.77083e-15 -3.18055e-15 0 -8.3 1 23.9802 10.8478 -2.91381 1.13687e-13 -4.65 -2.84217e-14 73.1002 -0.21596 0.25161 0 -3.3 0 56.1132 0.110555 0.402552 0.5 -2.15 -0.8 3.18055e-15 4.77083e-15 -3.18055e-15 0 -7.75 -0.2 27.7976 2.78293 -1.84792 -1.13687e-13 -3.8 -5.68434e-14 66.7502 0.0990225 -0.142134 0 -3.4 2.84217e-14 48.4139 -0.0409047 -0.170738 0.75 -1.75 -1.85 3.18055e-15 4.77083e-15 -3.18055e-15 0 -7.15 -1 31.6932 0.447002 -1.71872 0 -3 5.68434e-14 42.7221 0.327806 -0.239493 0 -2.35 0 29.8208 0.102917 -0.23703 8 0 0 13.1317 -13.1658 17.5134 -1.13687e-13 -45 -1 0.0328175 14.7313 -0.371996 1.13687e-13 -41 -2 -5.70318 0.764502 0.330785 0 -7.5 12.5 4.89452e-12 -3.005e-07 -3.49696e-06 1.13687e-13 0 4 2.90108 -4.81159 9.49343 -8 7.10543e-15 0 -0.415579 3.49044 1.88529 0 -45 -1 -0.00158188 3.85331 0.05035 -1.13687e-13 -41 -2 3.41978 -7.43449 -3.12122 0 -7.5 12.5 -2.23867e-10 -0.0497478 2.35469e-06 0 0 4 -2.54739 3.72309 -3.72011 
292.731 92.1599 833.959 -0.959753 -2.94119 71.6837 0 8 1.13687e-13 5.05312 -0.153866 -8.23296 1.13687e-13 8 -1.13687e-13 -0.937229 -0.0633997 -3.36557 0 8 1.13687e-13 -0.465739 -0.0415122 -1.68386 1.13687e-13 8 0 -0.464779 -0.0417223 -1.68143 0 17 0 2.80421 5.76923 5.0518 1.13687e-13 10.8 0 0.258166 9.58353 11.956 5 17 0 -2.03936 -3.50741 4.48938 6.45 0 0 -0.988947 -1.35345 1.21094 6.45 -2.84217e-14 0 3.87514 -23.9521 5.13461 0 -32.4 -2 -0.782266 -50.1865 46.415 0 -25.65 2 -18.2185 -0.112949 8.136 -0.5 -1.5 2.65 3.6097 -15.8451 -5.26759 -5.68434e-14 -3.8 3.7 -0.0957786 36.611 -0.0107892 5.68434e-14 -3 2.7 -0.493628 49.1156 0.319122 0 -1.9 1.6 -8.71627e-07 1.05263e-06 -2.77942e-06 0 -8.3 1.9 -8.39961 -21.9557 -1.36985 -2.84217e-14 -4.5 0 -0.000302192 -0.000322779 -0.000567552 5.68434e-14 -3.4 -1.13687e-13 -8.31123e-07 -0.000272786 -0.0011635 -0.25 -2.2 0.4 -8.71627e-07 1.05263e-06 -2.77942e-06 0 -8.3 1 -9.30057 -13.2029 -0.757036 5.68434e-14 -4.65 -1.13687e-13 0.18049 -0.0109791 -0.0134187 -5.68434e-14 -3.3 -1.13687e-13 0.155997 -0.00889592 -0.0119148 -0.5 -2.15 -0.8 -8.71627e-07 1.05263e-06 -2.77942e-06 0 -7.75 -0.2 -14.6411 2.09185 0.79358 4.26326e-14 -3.8 5.68434e-14 0.121044 -0.00628661 -0.00334764 2.84217e-14 -3.4 0 0.110315 -0.0056285 -0.00311801 -0.75 -1.75 -1.85 -8.71627e-07 1.05263e-06 -2.77942e-06 -5.68434e-14 -7.15 -1 -17.1318 9.46581 2.11567 1.42109e-14 -3 5.68434e-14 0.327107 -0.0142706 -0.00193412 -1.42109e-14 -2.35 5.68434e-14 0.276983 -0.0118156 -0.00291531 -5 17 0 1.47348 0.39713 4.91381 -6.45 0 0 -1.64401 0.754227 0.0892346 -6.45 2.84217e-14 0 -4.36917 -29.603 32.9354 0 -32.4 -2 48.4775 -59.0876 32.5894 0 -25.65 2 -45.1475 7.06759 12.846 0.5 -1.5 2.65 8.62773 -11.8032 5.24423 0 -3.8 3.7 0.53011 26.4837 -0.225271 0 -3 2.7 0.12055 11.9611 0.0281568 0 -1.9 1.6 -1.32417e-31 2.38542e-15 3.18055e-15 -1.13687e-13 -8.3 1.9 20.5788 16.3933 -3.20283 0 -4.5 8.52651e-14 14.3546 0.188215 0.0714143 0 -3.4 -5.68434e-14 11.9985 0.142635 0.0219878 0.25 -2.2 0.4 -1.32417e-31 2.38542e-15 3.18055e-15 0 -8.3 1 25.9005 12.0132 -3.44031 -1.13687e-13 -4.65 -5.68434e-14 74.1926 -0.184075 0.212576 0 -3.3 0 57.49 0.094728 0.342263 0.5 -2.15 -0.8 -1.32417e-31 2.38542e-15 3.18055e-15 -1.13687e-13 -7.75 -0.2 30.5336 3.29446 -2.17065 0 -3.8 0 65.8574 0.0941457 -0.14192 -1.13687e-13 -3.4 0 47.5359 -0.040748 -0.163663 0.75 -1.75 -1.85 -1.32417e-31 2.38542e-15 3.18055e-15 0 -7.15 -1 34.9999 0.856395 -2.03502 0 -3 0 41.0475 0.27756 -0.21072 0 -2.35 2.84217e-14 28.768 0.0870926 -0.199583 8 -1.42109e-14 0 13.1275 -13.1659 17.4817 -1.13687e-13 -45 -1 0.0336262 14.7291 -0.375522 0 -41 -2 -5.7058 0.761989 0.352624 0 -7.5 12.5 4.89452e-12 -3.005e-07 -3.49696e-06 -1.13687e-13 0 4 2.91509 -4.81138 9.49374 -8 7.10543e-15 1.13687e-13 -0.416023 3.48987 1.88482 0 -45 -1 -0.00152916 3.85028 0.0508073 0 -41 -2 3.4218 -7.43398 -3.12068 -1.13687e-13 -7.5 12.5 -1.84051e-10 -0.0507167 2.35469e-06 0 -5.55112e-17 4 -2.55837 3.72376 -3.71958 
292.73 92.1608 833.959 -0.960494 -2.94503 71.6939 0 8 0 5.05737 -0.149359 -8.23972 0 8 0 -0.935534 -0.0646689 -3.37387 1.13687e-13 8 1.13687e-13 -0.466384 -0.0419831 -1.68755 0 8 0 -0.464999 -0.0424623 -1.68566 0 17 0 2.83426 5.79719 5.06245 -1.13687e-13 10.8 1.13687e-13 0.259923 9.60777 11.9835 5 17 1.13687e-13 -2.02716 -3.41935 4.49674 6.45 -2.84217e-14 0 -0.980548 -1.34814 1.22526 6.45 -4.26326e-14 1.13687e-13 4.13691 -24.0714 5.1205 -2.27374e-13 -32.4 -2 -1.08164 -49.4304 46.2087 1.13687e-13 -25.65 2 -19.4764 0.2656 8.46066 -0.5 -1.5 2.65 2.48129 -14.7171 -6.24201 -1.13687e-13 -3.8 3.7 -0.16868 36.6575 0.021316 0 -3 2.7 -0.680426 44.7271 0.339793 0 -1.9 1.6 -8.71627e-07 1.05263e-06 -2.77942e-06 0 -8.3 1.9 -7.68567 -20.93 -1.19056 -5.68434e-14 -4.5 0 -0.000312613 -0.000718112 3.03976e-06 0 -3.4 0 -4.95227e-06 -0.000665609 -0.00136195 -0.25 -2.2 0.4 -8.71627e-07 1.05263e-06 -2.77942e-06 5.68434e-14 -8.3 1 -9.38672 -12.5093 -0.708575 2.84217e-14 -4.65 -1.13687e-13 0.0894923 -0.00433342 -0.00677302 0 -3.3 0 0.0779981 -0.00396231 -0.00602276 -0.5 -2.15 -0.8 -8.71627e-07 1.05263e-06 -2.77942e-06 0 -7.75 -0.2 -16.2135 1.62747 0.818775 5.68434e-14 -3.8 5.68434e-14 0.0605424 -0.00334164 -0.0019281 2.84217e-14 -3.4 5.68434e-14 0.0551596 -0.00304894 -0.00130043 -0.75 -1.75 -1.85 -8.71627e-07 1.05263e-06 -2.77942e-06 0 -7.15 -1 -19.3125 8.38125 2.20455 -5.68434e-14 -3 -5.68434e-14 0.16358 -0.00713714 -0.000975815 0 -2.35 0 0.138493 -0.00591007 -0.00146539 -5 17 0 1.51641 0.474556 4.94149 -6.45 0 0 -1.65016 0.756553 0.0731845 -6.45 5.68434e-14 0 -4.3263 -29.4575 32.7385 1.13687e-13 -32.4 -2 49.0793 -58.4157 31.8011 -1.13687e-13 -25.65 2 -44.9429 7.90845 10.3207 0.5 -1.5 2.65 8.16579 -12.8629 4.99055 -1.13687e-13 -3.8 3.7 0.573508 26.3385 -0.211326 0 -3 2.7 0.0927707 12.4439 0.00975197 1.13687e-13 -1.9 1.6 3.18055e-15 7.15625e-15 4.77083e-15 0 -8.3 1.9 21.644 17.6884 -3.67867 1.13687e-13 -4.5 -5.68434e-14 13.5022 0.148519 0.0623289 0 -3.4 2.84217e-14 11.3814 0.114231 0.0225775 0.25 -2.2 0.4 3.18055e-15 7.15625e-15 4.77083e-15 1.13687e-13 -8.3 1 27.6508 12.882 -3.93631 0 -4.65 2.84217e-14 75.571 -0.0954257 0.113106 1.13687e-13 -3.3 0 59.2094 0.0562782 0.183255 0.5 -2.15 -0.8 3.18055e-15 7.15625e-15 4.77083e-15 0 -7.75 -0.2 33.0437 3.67411 -2.48699 -1.13687e-13 -3.8 0 64.8587 0.0866703 -0.135827 0 -3.4 0 46.575 -0.0378078 -0.151221 0.75 -1.75 -1.85 3.18055e-15 7.15625e-15 4.77083e-15 0 -7.15 -1 37.9851 1.19406 -2.36292 -1.13687e-13 -3 -2.84217e-14 39.452 0.236183 -0.182854 -1.13687e-13 -2.35 0 27.789 0.0750257 -0.167751 8 -2.13163e-14 0 13.129 -13.171 17.4637 0 -45 -1 0.0345234 14.7307 -0.379505 1.13687e-13 -41 -2 -5.70571 0.762472 0.360097 -1.13687e-13 -7.5 12.5 4.89452e-12 -3.005e-07 -3.49696e-06 -1.13687e-13 1.73472e-18 4 2.92795 -4.81217 9.49411 -8 -7.10543e-15 0 -0.410054 3.49205 1.88991 0 -45 -1 -0.00147347 3.84489 0.0511573 0 -41 -2 3.42018 -7.43516 -3.13286 0 -7.5 12.5 -1.44176e-10 -0.0516869 2.35469e-06 0 0 4 -2.56349 3.72472 -3.71905 
